<svg width="20" height="20" viewBox="0 0 20 20" fill="none" xmlns="http://www.w3.org/2000/svg">
<path d="M9.134 13.6223L9.6825 12.3659C10.1707 11.2479 11.0493 10.3579 12.1453 9.87138L13.6551 9.20119C14.1351 8.98813 14.1351 8.2898 13.6551 8.07673L12.1924 7.42746C11.0682 6.92845 10.1739 6.00551 9.69406 4.84934L9.13844 3.51046C8.93225 3.0136 8.24574 3.0136 8.03956 3.51046L7.48392 4.84933C7.00411 6.00551 6.10971 6.92845 4.98553 7.42746L3.52286 8.07673C3.04284 8.2898 3.04283 8.98813 3.52286 9.20119L5.03269 9.87138C6.12868 10.3579 7.00732 11.2479 7.49547 12.3659L8.044 13.6223C8.25485 14.1051 8.92312 14.1051 9.134 13.6223ZM14.6259 16.6812L14.7801 16.3276C15.0551 15.6973 15.5504 15.1953 16.1684 14.9208L16.6437 14.7096C16.9007 14.5954 16.9007 14.2218 16.6437 14.1076L16.1951 13.9083C15.5611 13.6266 15.0569 13.1061 14.7866 12.4543L14.6282 12.0723C14.5178 11.806 14.1497 11.806 14.0392 12.0723L13.8809 12.4543C13.6106 13.1061 13.1064 13.6266 12.4725 13.9083L12.0238 14.1076C11.7668 14.2218 11.7668 14.5954 12.0238 14.7096L12.4991 14.9208C13.1171 15.1953 13.6124 15.6973 13.8874 16.3276L14.0417 16.6812C14.1546 16.94 14.5129 16.94 14.6259 16.6812Z" fill="white"/>
</svg>
