<svg width="24" height="24" viewBox="0 0 24 24" fill="none" xmlns="http://www.w3.org/2000/svg">
<path d="M20.1 8.39998C20.5774 8.39998 21.0352 8.58963 21.3728 8.92719C21.7104 9.26476 21.9 9.72259 21.9 10.2V13.8C21.9 14.2774 21.7104 14.7352 21.3728 15.0728C21.0352 15.4103 20.5774 15.6 20.1 15.6H19.1442C18.9248 17.34 18.0779 18.94 16.7626 20.1C15.4472 21.2599 13.7537 21.9 12 21.9V20.1C13.4322 20.1 14.8057 19.5311 15.8184 18.5184C16.8311 17.5057 17.4 16.1322 17.4 14.7V9.29998C17.4 7.86781 16.8311 6.4943 15.8184 5.48161C14.8057 4.46891 13.4322 3.89998 12 3.89998C10.5678 3.89998 9.19432 4.46891 8.18162 5.48161C7.16893 6.4943 6.6 7.86781 6.6 9.29998V15.6H3.9C3.42261 15.6 2.96477 15.4103 2.62721 15.0728C2.28964 14.7352 2.1 14.2774 2.1 13.8V10.2C2.1 9.72259 2.28964 9.26476 2.62721 8.92719C2.96477 8.58963 3.42261 8.39998 3.9 8.39998H4.8558C5.07543 6.66019 5.92237 5.06033 7.23771 3.90059C8.55306 2.74085 10.2464 2.10095 12 2.10095C13.7536 2.10095 15.4469 2.74085 16.7623 3.90059C18.0776 5.06033 18.9246 6.66019 19.1442 8.39998H20.1ZM8.184 15.4065L9.138 13.8801C9.99577 14.4174 10.9878 14.7016 12 14.7C13.0122 14.7016 14.0042 14.4174 14.862 13.8801L15.816 15.4065C14.6723 16.123 13.3496 16.5021 12 16.5C10.6504 16.5021 9.32766 16.123 8.184 15.4065Z" fill="#0E121B"/>
</svg>
