<svg width="20" height="20" viewBox="0 0 20 20" fill="none" xmlns="http://www.w3.org/2000/svg">
<path d="M10 1.375L13.1695 6.01225L18.5597 7.594L15.1285 12.0415L15.2897 17.656L10 15.7675L4.71025 17.656L4.8715 12.0415L1.44025 7.594L6.8305 6.01225L10 1.375ZM10 4.033L7.7665 7.3015L3.96775 8.41525L6.3865 11.5487L6.27175 15.505L10 14.1745L13.7275 15.505L13.6135 11.5487L16.0315 8.41525L12.2335 7.3015L10 4.033ZM8.5 10C8.5 10.3978 8.65804 10.7794 8.93934 11.0607C9.22064 11.342 9.60217 11.5 10 11.5C10.3978 11.5 10.7794 11.342 11.0607 11.0607C11.342 10.7794 11.5 10.3978 11.5 10H13C13 10.7956 12.6839 11.5587 12.1213 12.1213C11.5587 12.6839 10.7956 13 10 13C9.20435 13 8.44129 12.6839 7.87868 12.1213C7.31607 11.5587 7 10.7956 7 10H8.5Z" fill="#525866"/>
</svg>
