<svg width="24" height="24" viewBox="0 0 24 24" fill="none" xmlns="http://www.w3.org/2000/svg">
<path d="M4.34275 8.4585L5.50015 18.3H18.4997L19.6571 8.4585L16.0481 10.8642L11.9999 5.1969L7.95175 10.8642L4.34275 8.4585ZM3.72085 5.88L7.49995 8.4L11.2673 3.126C11.3506 3.00933 11.4605 2.91424 11.5879 2.84862C11.7154 2.78301 11.8566 2.74878 11.9999 2.74878C12.1433 2.74878 12.2845 2.78301 12.412 2.84862C12.5394 2.91424 12.6493 3.00933 12.7325 3.126L16.4999 8.4L20.2799 5.88C20.423 5.78482 20.5903 5.73259 20.7621 5.72946C20.9339 5.72634 21.103 5.77246 21.2494 5.86238C21.3959 5.9523 21.5135 6.08225 21.5884 6.23688C21.6633 6.39151 21.6924 6.56436 21.6722 6.735L20.1935 19.3053C20.1678 19.5242 20.0625 19.7261 19.8978 19.8726C19.733 20.019 19.5203 20.1 19.2998 20.1H4.70005C4.47961 20.1 4.26684 20.019 4.10211 19.8726C3.93738 19.7261 3.83214 19.5242 3.80635 19.3053L2.32765 6.7341C2.30767 6.56354 2.3369 6.39081 2.4119 6.23633C2.48691 6.08184 2.60454 5.95203 2.75093 5.86224C2.89731 5.77244 3.06633 5.72639 3.23803 5.72954C3.40973 5.73269 3.57695 5.7849 3.71995 5.88H3.72085ZM11.9999 14.7C11.5226 14.7 11.0647 14.5104 10.7272 14.1728C10.3896 13.8352 10.1999 13.3774 10.1999 12.9C10.1999 12.4226 10.3896 11.9648 10.7272 11.6272C11.0647 11.2896 11.5226 11.1 11.9999 11.1C12.4773 11.1 12.9352 11.2896 13.2727 11.6272C13.6103 11.9648 13.7999 12.4226 13.7999 12.9C13.7999 13.3774 13.6103 13.8352 13.2727 14.1728C12.9352 14.5104 12.4773 14.7 11.9999 14.7Z" fill="#525866"/>
</svg>
