<svg width="36" height="36" viewBox="0 0 36 36" fill="none" xmlns="http://www.w3.org/2000/svg">
<g filter="url(#filter0_d_82_575)">
<path d="M2 17C2 8.16344 9.16344 1 18 1C26.8366 1 34 8.16344 34 17C34 25.8366 26.8366 33 18 33C9.16344 33 2 25.8366 2 17Z" fill="white" shape-rendering="crispEdges"/>
<path d="M18 1.5C26.5604 1.5 33.5 8.43959 33.5 17C33.5 25.5604 26.5604 32.5 18 32.5C9.43959 32.5 2.5 25.5604 2.5 17C2.5 8.43959 9.43959 1.5 18 1.5Z" stroke="#E1E4EA" shape-rendering="crispEdges"/>
<path d="M24.75 10.25C24.9489 10.25 25.1397 10.329 25.2803 10.4697C25.421 10.6103 25.5 10.8011 25.5 11V15.125C25.0027 15.125 24.5258 15.3225 24.1742 15.6742C23.8225 16.0258 23.625 16.5027 23.625 17C23.625 17.4973 23.8225 17.9742 24.1742 18.3258C24.5258 18.6775 25.0027 18.875 25.5 18.875V23C25.5 23.1989 25.421 23.3897 25.2803 23.5303C25.1397 23.671 24.9489 23.75 24.75 23.75H11.25C11.0511 23.75 10.8603 23.671 10.7197 23.5303C10.579 23.3897 10.5 23.1989 10.5 23V18.875C10.9973 18.875 11.4742 18.6775 11.8258 18.3258C12.1775 17.9742 12.375 17.4973 12.375 17C12.375 16.5027 12.1775 16.0258 11.8258 15.6742C11.4742 15.3225 10.9973 15.125 10.5 15.125V11C10.5 10.8011 10.579 10.6103 10.7197 10.4697C10.8603 10.329 11.0511 10.25 11.25 10.25H24.75ZM24 11.75H12V13.976L12.117 14.0368C12.6257 14.3143 13.0544 14.7181 13.3618 15.2094C13.6692 15.7007 13.8449 16.2629 13.872 16.8418L13.875 17C13.8751 17.6062 13.7119 18.2012 13.4025 18.7225C13.0932 19.2438 12.6491 19.6721 12.117 19.9625L12 20.024V22.25H24V20.0233L23.883 19.9633C23.3743 19.6857 22.9456 19.2819 22.6382 18.7906C22.3308 18.2993 22.1551 17.7371 22.128 17.1583L22.125 17C22.125 15.722 22.8352 14.6098 23.883 14.0375L24 13.9753V11.75ZM21 14.75V19.25H15V14.75H21Z" fill="#525866"/>
</g>
<defs>
<filter id="filter0_d_82_575" x="0" y="0" width="36" height="36" filterUnits="userSpaceOnUse" color-interpolation-filters="sRGB">
<feFlood flood-opacity="0" result="BackgroundImageFix"/>
<feColorMatrix in="SourceAlpha" type="matrix" values="0 0 0 0 0 0 0 0 0 0 0 0 0 0 0 0 0 0 127 0" result="hardAlpha"/>
<feOffset dy="1"/>
<feGaussianBlur stdDeviation="1"/>
<feComposite in2="hardAlpha" operator="out"/>
<feColorMatrix type="matrix" values="0 0 0 0 0.0392157 0 0 0 0 0.0509804 0 0 0 0 0.0784314 0 0 0 0.03 0"/>
<feBlend mode="normal" in2="BackgroundImageFix" result="effect1_dropShadow_82_575"/>
<feBlend mode="normal" in="SourceGraphic" in2="effect1_dropShadow_82_575" result="shape"/>
</filter>
</defs>
</svg>
