<svg width="20" height="20" viewBox="0 0 20 20" fill="none" xmlns="http://www.w3.org/2000/svg">
<path d="M9.134 13.6223C8.92312 14.1051 8.25485 14.1051 8.044 13.6223L7.49547 12.3659C7.00732 11.2479 6.12868 10.3579 5.03269 9.87138L3.52286 9.20119C3.04283 8.98813 3.04284 8.2898 3.52286 8.07673L4.98553 7.42746C6.10971 6.92845 7.00411 6.00551 7.48392 4.84933L8.03956 3.51046C8.24574 3.0136 8.93225 3.0136 9.13844 3.51046L9.69406 4.84934C10.1739 6.00551 11.0682 6.92845 12.1924 7.42746L13.6551 8.07673C14.1351 8.2898 14.1351 8.98813 13.6551 9.20119L12.1453 9.87138C11.0493 10.3579 10.1707 11.2479 9.6825 12.3659L9.134 13.6223ZM5.33722 8.63896C6.76587 9.27313 7.92751 10.3155 8.58899 11.7498C9.2505 10.3155 10.4121 9.27313 11.8407 8.63896C10.3951 7.99723 9.22975 6.90404 8.58899 5.4443C7.94824 6.90405 6.78292 7.99723 5.33722 8.63896ZM14.6259 16.6812L14.7801 16.3276C15.0551 15.6973 15.5504 15.1953 16.1684 14.9208L16.6437 14.7096C16.9007 14.5954 16.9007 14.2218 16.6437 14.1076L16.1951 13.9083C15.5611 13.6266 15.0569 13.1061 14.7866 12.4543L14.6282 12.0723C14.5178 11.806 14.1497 11.806 14.0392 12.0723L13.8809 12.4543C13.6106 13.1061 13.1064 13.6266 12.4725 13.9083L12.0238 14.1076C11.7668 14.2218 11.7668 14.5954 12.0238 14.7096L12.4991 14.9208C13.1171 15.1953 13.6124 15.6973 13.8874 16.3276L14.0417 16.6812C14.1546 16.94 14.5129 16.94 14.6259 16.6812ZM13.9841 14.4043L14.3356 14.0552L14.6799 14.4043L14.3356 14.7436L13.9841 14.4043Z" fill="#525866"/>
</svg>
