<svg width="40" height="40" viewBox="0 0 40 40" fill="none" xmlns="http://www.w3.org/2000/svg">
<path d="M0 10C0 4.47715 4.47715 0 10 0H30C35.5228 0 40 4.47715 40 10V30C40 35.5228 35.5228 40 30 40H10C4.47715 40 0 35.5228 0 30V10Z" fill="#EFEBFF"/>
<path d="M20.0001 20.5274L23.8188 24.3452L22.5452 25.6187L20.9001 23.9735V29H19.1V23.9717L17.4549 25.6187L16.1814 24.3452L20.0001 20.5274ZM20.0001 11C21.5453 11.0001 23.0367 11.568 24.1906 12.5958C25.3445 13.6236 26.0805 15.0396 26.2587 16.5746C27.3785 16.88 28.3554 17.5692 29.0186 18.5218C29.6819 19.4744 29.9893 20.6297 29.8871 21.786C29.7849 22.9422 29.2797 24.0257 28.4597 24.8472C27.6396 25.6687 26.557 26.1759 25.401 26.2802V24.4676C25.8151 24.4085 26.2133 24.2674 26.5724 24.0527C26.9314 23.8379 27.2441 23.5539 27.4922 23.217C27.7402 22.8801 27.9187 22.4972 28.0171 22.0906C28.1156 21.6839 28.1321 21.2618 28.0656 20.8488C27.9991 20.4357 27.851 20.0401 27.63 19.6849C27.4089 19.3297 27.1194 19.0221 26.7781 18.78C26.4369 18.538 26.0509 18.3663 25.6426 18.2751C25.2343 18.1838 24.812 18.1748 24.4002 18.2486C24.5411 17.5924 24.5335 16.913 24.3778 16.2601C24.2222 15.6072 23.9225 14.9974 23.5007 14.4754C23.0789 13.9533 22.5456 13.5322 21.94 13.243C21.3343 12.9537 20.6717 12.8036 20.0005 12.8036C19.3293 12.8036 18.6667 12.9537 18.061 13.243C17.4554 13.5322 16.9221 13.9533 16.5003 14.4754C16.0785 14.9974 15.7788 15.6072 15.6232 16.2601C15.4675 16.913 15.4599 17.5924 15.6009 18.2486C14.7797 18.0944 13.931 18.2727 13.2414 18.7443C12.5517 19.2159 12.0776 19.9421 11.9235 20.7632C11.7693 21.5843 11.9476 22.433 12.4191 23.1227C12.8907 23.8123 13.6169 24.2864 14.4381 24.4406L14.6001 24.4676V26.2802C13.444 26.1761 12.3612 25.669 11.5411 24.8476C10.7209 24.0261 10.2155 22.9426 10.1133 21.7863C10.011 20.6301 10.3183 19.4747 10.9815 18.522C11.6447 17.5693 12.6216 16.88 13.7415 16.5746C13.9194 15.0395 14.6553 13.6234 15.8093 12.5956C16.9632 11.5677 18.4547 10.9999 20.0001 11Z" fill="#7D52F4"/>
</svg>
